<mxfile host="app.diagrams.net" modified="2024-05-31T21:19:42.654Z" agent="Mozilla/5.0 (Windows NT 10.0; Win64; x64) AppleWebKit/537.36 (KHTML, like Gecko) Chrome/125.0.0.0 Safari/537.36" etag="4SecbQlO9t_DqePPgTCe" version="24.4.13" type="device">
  <diagram name="Page-1" id="BHdNFCYTddPQUC-m1091">
    <mxGraphModel dx="1050" dy="570" grid="1" gridSize="10" guides="1" tooltips="1" connect="1" arrows="1" fold="1" page="1" pageScale="1" pageWidth="850" pageHeight="1100" math="0" shadow="0">
      <root>
        <mxCell id="0" />
        <mxCell id="1" parent="0" />
        <mxCell id="dho4fEpibnppqb8Sw_KR-1" value="" style="endArrow=none;html=1;rounded=0;" edge="1" parent="1">
          <mxGeometry width="50" height="50" relative="1" as="geometry">
            <mxPoint x="280" y="1103.199951171875" as="sourcePoint" />
            <mxPoint x="280" as="targetPoint" />
          </mxGeometry>
        </mxCell>
        <mxCell id="dho4fEpibnppqb8Sw_KR-3" value="" style="endArrow=none;html=1;rounded=0;" edge="1" parent="1">
          <mxGeometry width="50" height="50" relative="1" as="geometry">
            <mxPoint x="560" y="1101.5999755859375" as="sourcePoint" />
            <mxPoint x="560" as="targetPoint" />
          </mxGeometry>
        </mxCell>
        <mxCell id="dho4fEpibnppqb8Sw_KR-4" value="Guest" style="text;html=1;align=center;verticalAlign=middle;whiteSpace=wrap;rounded=0;" vertex="1" parent="1">
          <mxGeometry x="100" y="10" width="60" height="30" as="geometry" />
        </mxCell>
        <mxCell id="dho4fEpibnppqb8Sw_KR-5" value="Host" style="text;html=1;align=center;verticalAlign=middle;whiteSpace=wrap;rounded=0;" vertex="1" parent="1">
          <mxGeometry x="680" y="10" width="60" height="30" as="geometry" />
        </mxCell>
        <mxCell id="dho4fEpibnppqb8Sw_KR-6" value="System" style="text;html=1;align=center;verticalAlign=middle;whiteSpace=wrap;rounded=0;" vertex="1" parent="1">
          <mxGeometry x="380" y="10" width="60" height="30" as="geometry" />
        </mxCell>
        <mxCell id="dho4fEpibnppqb8Sw_KR-7" value="" style="ellipse;whiteSpace=wrap;html=1;aspect=fixed;fillColor=#171616;" vertex="1" parent="1">
          <mxGeometry x="110" y="60" width="40" height="40" as="geometry" />
        </mxCell>
        <mxCell id="dho4fEpibnppqb8Sw_KR-9" value="pocetak otvaranja foruma" style="rounded=1;whiteSpace=wrap;html=1;" vertex="1" parent="1">
          <mxGeometry x="70" y="170" width="120" height="60" as="geometry" />
        </mxCell>
        <mxCell id="dho4fEpibnppqb8Sw_KR-11" value="" style="endArrow=classic;html=1;rounded=0;" edge="1" parent="1" target="dho4fEpibnppqb8Sw_KR-12">
          <mxGeometry width="50" height="50" relative="1" as="geometry">
            <mxPoint x="130" y="100" as="sourcePoint" />
            <mxPoint x="130" y="150" as="targetPoint" />
          </mxGeometry>
        </mxCell>
        <mxCell id="dho4fEpibnppqb8Sw_KR-12" value="" style="rounded=0;whiteSpace=wrap;html=1;fillColor=#0a0a0a;" vertex="1" parent="1">
          <mxGeometry x="120" y="150" width="20" height="20" as="geometry" />
        </mxCell>
        <mxCell id="dho4fEpibnppqb8Sw_KR-14" value="lokacija" style="text;html=1;align=center;verticalAlign=middle;whiteSpace=wrap;rounded=0;" vertex="1" parent="1">
          <mxGeometry x="150" y="130" width="60" height="30" as="geometry" />
        </mxCell>
        <mxCell id="dho4fEpibnppqb8Sw_KR-15" value="" style="endArrow=classic;html=1;rounded=0;exitX=0.5;exitY=1;exitDx=0;exitDy=0;" edge="1" parent="1" source="dho4fEpibnppqb8Sw_KR-9">
          <mxGeometry width="50" height="50" relative="1" as="geometry">
            <mxPoint x="400" y="250" as="sourcePoint" />
            <mxPoint x="130" y="280" as="targetPoint" />
          </mxGeometry>
        </mxCell>
        <mxCell id="dho4fEpibnppqb8Sw_KR-23" value="" style="shape=offPageConnector;whiteSpace=wrap;html=1;rotation=-90;" vertex="1" parent="1">
          <mxGeometry x="428" y="410" width="90" height="160" as="geometry" />
        </mxCell>
        <mxCell id="dho4fEpibnppqb8Sw_KR-24" value="&lt;div&gt;obavestenje o otvaranju foruma&lt;/div&gt;" style="text;html=1;align=center;verticalAlign=middle;whiteSpace=wrap;rounded=0;" vertex="1" parent="1">
          <mxGeometry x="400.5" y="460" width="90" height="60" as="geometry" />
        </mxCell>
        <mxCell id="dho4fEpibnppqb8Sw_KR-27" value="" style="ellipse;html=1;shape=endState;fillColor=#000000;strokeColor=#ff0000;" vertex="1" parent="1">
          <mxGeometry x="700" y="890" width="30" height="30" as="geometry" />
        </mxCell>
        <mxCell id="dho4fEpibnppqb8Sw_KR-33" value="" style="group" vertex="1" connectable="0" parent="1">
          <mxGeometry x="645" y="570" width="140" height="70" as="geometry" />
        </mxCell>
        <mxCell id="dho4fEpibnppqb8Sw_KR-28" value="" style="rounded=0;whiteSpace=wrap;html=1;container=0;" vertex="1" parent="dho4fEpibnppqb8Sw_KR-33">
          <mxGeometry width="140" height="70" as="geometry" />
        </mxCell>
        <mxCell id="dho4fEpibnppqb8Sw_KR-29" value="" style="triangle;whiteSpace=wrap;html=1;strokeColor=#ebe5e5;container=0;" vertex="1" parent="dho4fEpibnppqb8Sw_KR-33">
          <mxGeometry width="70" height="70" as="geometry" />
        </mxCell>
        <mxCell id="dho4fEpibnppqb8Sw_KR-31" value="" style="endArrow=none;html=1;rounded=0;entryX=-0.033;entryY=0.033;entryDx=0;entryDy=0;entryPerimeter=0;exitX=1;exitY=0.5;exitDx=0;exitDy=0;" edge="1" parent="dho4fEpibnppqb8Sw_KR-33" source="dho4fEpibnppqb8Sw_KR-29" target="dho4fEpibnppqb8Sw_KR-29">
          <mxGeometry width="50" height="50" relative="1" as="geometry">
            <mxPoint x="46.66666666666667" y="70" as="sourcePoint" />
            <mxPoint x="105" y="11.666666666666668" as="targetPoint" />
          </mxGeometry>
        </mxCell>
        <mxCell id="dho4fEpibnppqb8Sw_KR-32" value="" style="endArrow=none;html=1;rounded=0;entryX=1;entryY=0.5;entryDx=0;entryDy=0;exitX=-0.02;exitY=1.02;exitDx=0;exitDy=0;exitPerimeter=0;" edge="1" parent="dho4fEpibnppqb8Sw_KR-33" source="dho4fEpibnppqb8Sw_KR-29" target="dho4fEpibnppqb8Sw_KR-29">
          <mxGeometry width="50" height="50" relative="1" as="geometry">
            <mxPoint x="46.66666666666667" y="70" as="sourcePoint" />
            <mxPoint x="105" y="11.666666666666668" as="targetPoint" />
          </mxGeometry>
        </mxCell>
        <mxCell id="dho4fEpibnppqb8Sw_KR-34" value="obavestenje o otvorenom forumu" style="text;html=1;align=center;verticalAlign=middle;whiteSpace=wrap;rounded=0;" vertex="1" parent="dho4fEpibnppqb8Sw_KR-33">
          <mxGeometry x="70" y="20" width="60" height="30" as="geometry" />
        </mxCell>
        <mxCell id="dho4fEpibnppqb8Sw_KR-37" value="ima smestaj na lokaciji" style="rhombus;whiteSpace=wrap;html=1;" vertex="1" parent="1">
          <mxGeometry x="320" y="565" width="110" height="90" as="geometry" />
        </mxCell>
        <mxCell id="dho4fEpibnppqb8Sw_KR-38" value="" style="endArrow=classic;html=1;rounded=0;entryX=0.5;entryY=0;entryDx=0;entryDy=0;" edge="1" parent="1">
          <mxGeometry width="50" height="50" relative="1" as="geometry">
            <mxPoint x="374.5" y="655" as="sourcePoint" />
            <mxPoint x="374.5" y="715" as="targetPoint" />
          </mxGeometry>
        </mxCell>
        <mxCell id="dho4fEpibnppqb8Sw_KR-39" value="Da" style="text;html=1;align=center;verticalAlign=middle;whiteSpace=wrap;rounded=0;" vertex="1" parent="1">
          <mxGeometry x="415.5" y="570" width="60" height="30" as="geometry" />
        </mxCell>
        <mxCell id="dho4fEpibnppqb8Sw_KR-43" value="Ne" style="text;html=1;align=center;verticalAlign=middle;whiteSpace=wrap;rounded=0;" vertex="1" parent="1">
          <mxGeometry x="380" y="675" width="60" height="30" as="geometry" />
        </mxCell>
        <mxCell id="dho4fEpibnppqb8Sw_KR-44" value="ostavljanje prvog komentara" style="rounded=1;whiteSpace=wrap;html=1;" vertex="1" parent="1">
          <mxGeometry x="70" y="280" width="120" height="60" as="geometry" />
        </mxCell>
        <mxCell id="dho4fEpibnppqb8Sw_KR-46" value="" style="endArrow=none;html=1;rounded=0;entryX=1;entryY=0.5;entryDx=0;entryDy=0;" edge="1" parent="1" target="dho4fEpibnppqb8Sw_KR-37">
          <mxGeometry width="50" height="50" relative="1" as="geometry">
            <mxPoint x="475" y="610" as="sourcePoint" />
            <mxPoint x="343" y="540" as="targetPoint" />
          </mxGeometry>
        </mxCell>
        <mxCell id="dho4fEpibnppqb8Sw_KR-50" value="ostavljanje&amp;nbsp;&lt;div&gt;komentara&lt;/div&gt;" style="rounded=1;whiteSpace=wrap;html=1;" vertex="1" parent="1">
          <mxGeometry x="70" y="830" width="120" height="60" as="geometry" />
        </mxCell>
        <mxCell id="dho4fEpibnppqb8Sw_KR-51" value="ostavljanje&amp;nbsp;&lt;div&gt;komentara&lt;/div&gt;" style="rounded=1;whiteSpace=wrap;html=1;" vertex="1" parent="1">
          <mxGeometry x="655" y="790" width="120" height="60" as="geometry" />
        </mxCell>
        <mxCell id="dho4fEpibnppqb8Sw_KR-52" value="prikaz foruma" style="rounded=1;whiteSpace=wrap;html=1;" vertex="1" parent="1">
          <mxGeometry x="290" y="820" width="155" height="70" as="geometry" />
        </mxCell>
        <mxCell id="dho4fEpibnppqb8Sw_KR-56" value="" style="rhombus;whiteSpace=wrap;html=1;" vertex="1" parent="1">
          <mxGeometry x="350" y="715" width="50" height="50" as="geometry" />
        </mxCell>
        <mxCell id="dho4fEpibnppqb8Sw_KR-57" value="" style="endArrow=classic;html=1;rounded=0;entryX=1;entryY=0.5;entryDx=0;entryDy=0;" edge="1" parent="1">
          <mxGeometry width="50" height="50" relative="1" as="geometry">
            <mxPoint x="730" y="740" as="sourcePoint" />
            <mxPoint x="400" y="740" as="targetPoint" />
          </mxGeometry>
        </mxCell>
        <mxCell id="dho4fEpibnppqb8Sw_KR-59" value="" style="endArrow=none;html=1;rounded=0;" edge="1" parent="1">
          <mxGeometry width="50" height="50" relative="1" as="geometry">
            <mxPoint x="730" y="740" as="sourcePoint" />
            <mxPoint x="730" y="639" as="targetPoint" />
          </mxGeometry>
        </mxCell>
        <mxCell id="dho4fEpibnppqb8Sw_KR-67" value="" style="group" vertex="1" connectable="0" parent="1">
          <mxGeometry x="60" y="410" width="90" height="30" as="geometry" />
        </mxCell>
        <mxCell id="dho4fEpibnppqb8Sw_KR-61" value="" style="verticalLabelPosition=bottom;verticalAlign=top;html=1;shape=mxgraph.basic.patternFillRect;fillStyle=diag;step=5;fillStrokeWidth=0.2;fillStrokeColor=#dddddd;" vertex="1" parent="dho4fEpibnppqb8Sw_KR-67">
          <mxGeometry width="90" height="30" as="geometry" />
        </mxCell>
        <mxCell id="dho4fEpibnppqb8Sw_KR-63" value="" style="endArrow=none;html=1;rounded=0;entryX=0.372;entryY=0.16;entryDx=0;entryDy=0;entryPerimeter=0;" edge="1" parent="dho4fEpibnppqb8Sw_KR-67" target="dho4fEpibnppqb8Sw_KR-61">
          <mxGeometry width="50" height="50" relative="1" as="geometry">
            <mxPoint x="33.3" y="30" as="sourcePoint" />
            <mxPoint x="18.45" y="12" as="targetPoint" />
            <Array as="points">
              <mxPoint x="33.3" />
            </Array>
          </mxGeometry>
        </mxCell>
        <mxCell id="dho4fEpibnppqb8Sw_KR-64" value="" style="endArrow=none;html=1;rounded=0;entryX=0.372;entryY=0.16;entryDx=0;entryDy=0;entryPerimeter=0;" edge="1" parent="dho4fEpibnppqb8Sw_KR-67">
          <mxGeometry width="50" height="50" relative="1" as="geometry">
            <mxPoint x="53.550000000000004" y="30" as="sourcePoint" />
            <mxPoint x="53.550000000000004" y="5" as="targetPoint" />
            <Array as="points">
              <mxPoint x="53.550000000000004" />
            </Array>
          </mxGeometry>
        </mxCell>
        <mxCell id="dho4fEpibnppqb8Sw_KR-65" value="" style="endArrow=none;html=1;rounded=0;entryX=0.372;entryY=0.16;entryDx=0;entryDy=0;entryPerimeter=0;" edge="1" parent="dho4fEpibnppqb8Sw_KR-67">
          <mxGeometry width="50" height="50" relative="1" as="geometry">
            <mxPoint x="72" y="30" as="sourcePoint" />
            <mxPoint x="72" y="5" as="targetPoint" />
            <Array as="points">
              <mxPoint x="72" />
            </Array>
          </mxGeometry>
        </mxCell>
        <mxCell id="dho4fEpibnppqb8Sw_KR-66" value="" style="endArrow=none;html=1;rounded=0;entryX=0.372;entryY=0.16;entryDx=0;entryDy=0;entryPerimeter=0;" edge="1" parent="dho4fEpibnppqb8Sw_KR-67">
          <mxGeometry width="50" height="50" relative="1" as="geometry">
            <mxPoint x="15.75" y="30" as="sourcePoint" />
            <mxPoint x="15.75" y="5" as="targetPoint" />
            <Array as="points">
              <mxPoint x="15.75" />
            </Array>
          </mxGeometry>
        </mxCell>
        <mxCell id="dho4fEpibnppqb8Sw_KR-69" value="" style="group" vertex="1" connectable="0" parent="1">
          <mxGeometry x="750" y="390" width="90" height="30" as="geometry" />
        </mxCell>
        <mxCell id="dho4fEpibnppqb8Sw_KR-70" value="" style="verticalLabelPosition=bottom;verticalAlign=top;html=1;shape=mxgraph.basic.patternFillRect;fillStyle=diag;step=5;fillStrokeWidth=0.2;fillStrokeColor=#dddddd;" vertex="1" parent="dho4fEpibnppqb8Sw_KR-69">
          <mxGeometry width="90" height="30" as="geometry" />
        </mxCell>
        <mxCell id="dho4fEpibnppqb8Sw_KR-71" value="" style="endArrow=none;html=1;rounded=0;entryX=0.372;entryY=0.16;entryDx=0;entryDy=0;entryPerimeter=0;" edge="1" parent="dho4fEpibnppqb8Sw_KR-69" target="dho4fEpibnppqb8Sw_KR-70">
          <mxGeometry width="50" height="50" relative="1" as="geometry">
            <mxPoint x="33.3" y="30" as="sourcePoint" />
            <mxPoint x="18.45" y="12" as="targetPoint" />
            <Array as="points">
              <mxPoint x="33.3" />
            </Array>
          </mxGeometry>
        </mxCell>
        <mxCell id="dho4fEpibnppqb8Sw_KR-72" value="" style="endArrow=none;html=1;rounded=0;entryX=0.372;entryY=0.16;entryDx=0;entryDy=0;entryPerimeter=0;" edge="1" parent="dho4fEpibnppqb8Sw_KR-69">
          <mxGeometry width="50" height="50" relative="1" as="geometry">
            <mxPoint x="53.550000000000004" y="30" as="sourcePoint" />
            <mxPoint x="53.550000000000004" y="5" as="targetPoint" />
            <Array as="points">
              <mxPoint x="53.550000000000004" />
            </Array>
          </mxGeometry>
        </mxCell>
        <mxCell id="dho4fEpibnppqb8Sw_KR-73" value="" style="endArrow=none;html=1;rounded=0;entryX=0.372;entryY=0.16;entryDx=0;entryDy=0;entryPerimeter=0;" edge="1" parent="dho4fEpibnppqb8Sw_KR-69">
          <mxGeometry width="50" height="50" relative="1" as="geometry">
            <mxPoint x="72" y="30" as="sourcePoint" />
            <mxPoint x="72" y="5" as="targetPoint" />
            <Array as="points">
              <mxPoint x="72" />
            </Array>
          </mxGeometry>
        </mxCell>
        <mxCell id="dho4fEpibnppqb8Sw_KR-74" value="" style="endArrow=none;html=1;rounded=0;entryX=0.372;entryY=0.16;entryDx=0;entryDy=0;entryPerimeter=0;" edge="1" parent="dho4fEpibnppqb8Sw_KR-69">
          <mxGeometry width="50" height="50" relative="1" as="geometry">
            <mxPoint x="15.75" y="30" as="sourcePoint" />
            <mxPoint x="15.75" y="5" as="targetPoint" />
            <Array as="points">
              <mxPoint x="15.75" />
            </Array>
          </mxGeometry>
        </mxCell>
        <mxCell id="dho4fEpibnppqb8Sw_KR-75" value="" style="endArrow=classic;html=1;rounded=0;entryX=0;entryY=0.5;entryDx=0;entryDy=0;" edge="1" parent="1" target="dho4fEpibnppqb8Sw_KR-23">
          <mxGeometry width="50" height="50" relative="1" as="geometry">
            <mxPoint x="475" y="610" as="sourcePoint" />
            <mxPoint x="455" y="490" as="targetPoint" />
          </mxGeometry>
        </mxCell>
        <mxCell id="dho4fEpibnppqb8Sw_KR-76" value="" style="endArrow=classic;html=1;rounded=0;" edge="1" parent="1">
          <mxGeometry width="50" height="50" relative="1" as="geometry">
            <mxPoint x="725" y="490" as="sourcePoint" />
            <mxPoint x="725" y="571" as="targetPoint" />
          </mxGeometry>
        </mxCell>
        <mxCell id="dho4fEpibnppqb8Sw_KR-77" value="" style="endArrow=none;html=1;rounded=0;" edge="1" parent="1">
          <mxGeometry width="50" height="50" relative="1" as="geometry">
            <mxPoint x="555" y="490" as="sourcePoint" />
            <mxPoint x="725" y="489.51" as="targetPoint" />
          </mxGeometry>
        </mxCell>
        <mxCell id="dho4fEpibnppqb8Sw_KR-78" value="cuvanje sadrzaja foruma" style="rounded=1;whiteSpace=wrap;html=1;" vertex="1" parent="1">
          <mxGeometry x="350" y="280" width="120" height="60" as="geometry" />
        </mxCell>
        <mxCell id="dho4fEpibnppqb8Sw_KR-79" value="" style="html=1;points=[[0,0,0,0,5],[0,1,0,0,-5],[1,0,0,0,5],[1,1,0,0,-5]];perimeter=orthogonalPerimeter;outlineConnect=0;targetShapes=umlLifeline;portConstraint=eastwest;newEdgeStyle={&quot;curved&quot;:0,&quot;rounded&quot;:0};rotation=-90;fillColor=#050505;" vertex="1" parent="1">
          <mxGeometry x="405" y="350" width="10" height="80" as="geometry" />
        </mxCell>
        <mxCell id="dho4fEpibnppqb8Sw_KR-80" value="" style="endArrow=classic;html=1;rounded=0;exitX=1;exitY=0.5;exitDx=0;exitDy=0;entryX=0;entryY=0.5;entryDx=0;entryDy=0;" edge="1" parent="1" source="dho4fEpibnppqb8Sw_KR-44" target="dho4fEpibnppqb8Sw_KR-78">
          <mxGeometry width="50" height="50" relative="1" as="geometry">
            <mxPoint x="400" y="250" as="sourcePoint" />
            <mxPoint x="450" y="200" as="targetPoint" />
          </mxGeometry>
        </mxCell>
        <mxCell id="dho4fEpibnppqb8Sw_KR-81" value="" style="endArrow=classic;html=1;rounded=0;exitX=0.5;exitY=1;exitDx=0;exitDy=0;" edge="1" parent="1" source="dho4fEpibnppqb8Sw_KR-78" target="dho4fEpibnppqb8Sw_KR-79">
          <mxGeometry width="50" height="50" relative="1" as="geometry">
            <mxPoint x="400" y="450" as="sourcePoint" />
            <mxPoint x="450" y="400" as="targetPoint" />
          </mxGeometry>
        </mxCell>
        <mxCell id="dho4fEpibnppqb8Sw_KR-82" value="" style="endArrow=classic;html=1;rounded=0;exitX=0.5;exitY=1;exitDx=0;exitDy=0;entryX=0.557;entryY=0.029;entryDx=0;entryDy=0;entryPerimeter=0;" edge="1" parent="1" source="dho4fEpibnppqb8Sw_KR-56" target="dho4fEpibnppqb8Sw_KR-52">
          <mxGeometry width="50" height="50" relative="1" as="geometry">
            <mxPoint x="400" y="690" as="sourcePoint" />
            <mxPoint x="450" y="640" as="targetPoint" />
          </mxGeometry>
        </mxCell>
        <mxCell id="dho4fEpibnppqb8Sw_KR-83" value="" style="endArrow=classic;html=1;rounded=0;entryX=0.077;entryY=0.029;entryDx=0;entryDy=0;entryPerimeter=0;" edge="1" parent="1" target="dho4fEpibnppqb8Sw_KR-52">
          <mxGeometry width="50" height="50" relative="1" as="geometry">
            <mxPoint x="302" y="420" as="sourcePoint" />
            <mxPoint x="340" y="740" as="targetPoint" />
          </mxGeometry>
        </mxCell>
        <mxCell id="dho4fEpibnppqb8Sw_KR-84" value="" style="endArrow=none;html=1;rounded=0;" edge="1" parent="1">
          <mxGeometry width="50" height="50" relative="1" as="geometry">
            <mxPoint x="300" y="420" as="sourcePoint" />
            <mxPoint x="400" y="420" as="targetPoint" />
          </mxGeometry>
        </mxCell>
        <mxCell id="dho4fEpibnppqb8Sw_KR-85" value="" style="endArrow=none;html=1;rounded=0;" edge="1" parent="1" target="dho4fEpibnppqb8Sw_KR-79">
          <mxGeometry width="50" height="50" relative="1" as="geometry">
            <mxPoint x="400" y="420" as="sourcePoint" />
            <mxPoint x="450" y="540" as="targetPoint" />
          </mxGeometry>
        </mxCell>
        <mxCell id="dho4fEpibnppqb8Sw_KR-86" value="" style="endArrow=classic;html=1;rounded=0;exitX=0;exitY=1;exitDx=0;exitDy=-5;exitPerimeter=0;" edge="1" parent="1">
          <mxGeometry width="50" height="50" relative="1" as="geometry">
            <mxPoint x="445" y="393" as="sourcePoint" />
            <mxPoint x="445" y="448" as="targetPoint" />
          </mxGeometry>
        </mxCell>
        <mxCell id="dho4fEpibnppqb8Sw_KR-87" value="" style="html=1;points=[[0,0,0,0,5],[0,1,0,0,-5],[1,0,0,0,5],[1,1,0,0,-5]];perimeter=orthogonalPerimeter;outlineConnect=0;targetShapes=umlLifeline;portConstraint=eastwest;newEdgeStyle={&quot;curved&quot;:0,&quot;rounded&quot;:0};rotation=-90;fillColor=#050505;" vertex="1" parent="1">
          <mxGeometry x="330" y="750" width="10" height="80" as="geometry" />
        </mxCell>
      </root>
    </mxGraphModel>
  </diagram>
</mxfile>
